<svg xmlns="http://www.w3.org/2000/svg" style="position: absolute; width: 0; height: 0;"><symbol viewBox="0 0 25 19" id="icon-filter"><path d="M4 4a4 4 0 0 1 .14-1H0v2h4.14A4 4 0 0 1 4 4zM11.86 3A4 4 0 0 1 12 4a4 4 0 0 1-.14 1H25V3zM13 15a4 4 0 0 1 .14-1H0v2h13.14a4 4 0 0 1-.14-1zM20.86 14a3.61 3.61 0 0 1 0 2H25v-2z"></path><path d="M8 2a2 2 0 1 1-2 2 2 2 0 0 1 2-2m0-2a4 4 0 1 0 4 4 4 4 0 0 0-4-4zM17 13a2 2 0 1 1-2 2 2 2 0 0 1 2-2m0-2a4 4 0 1 0 4 4 4 4 0 0 0-4-4z"></path></symbol><symbol viewBox="0 0 11 14.3" id="icon-lock"><path d="M5.5 0a3.86 3.86 0 0 0-3.85 3.85V5.5H0v8.8h11V5.5H9.35V3.85A3.86 3.86 0 0 0 5.5 0zm0 1.1a2.75 2.75 0 0 1 2.75 2.75V5.5h-5.5V3.85A2.75 2.75 0 0 1 5.5 1.1zM1.1 6.6h8.8v6.6H1.1z"></path></symbol><symbol viewBox="0 0 429 66" id="icon-logo-en"><path d="M16.611 1.469v47.46h41.245v15.029H0V1.469h16.611zm298.399-.427v47.46h41.245v15.029h-57.856V1.042h16.611zM131.779 32.77c0 4.897-.96 9.36-2.881 13.39-1.922 4.03-4.483 7.477-7.684 10.34-3.202 2.863-6.931 5.085-11.188 6.667-4.256 1.582-8.72 2.373-13.39 2.373s-9.134-.791-13.39-2.373c-4.257-1.582-7.986-3.804-11.188-6.667-3.201-2.863-5.762-6.31-7.684-10.34-1.92-4.03-2.881-8.493-2.881-13.39s.96-9.36 2.881-13.39c1.922-4.03 4.483-7.477 7.684-10.34 3.202-2.863 6.931-5.085 11.188-6.667C87.502.791 91.966 0 96.636 0s9.134.791 13.39 2.373c4.257 1.582 7.986 3.804 11.188 6.667 3.201 2.863 5.762 6.31 7.684 10.34 1.92 4.03 2.881 8.493 2.881 13.39zm-53.675 0c0 2.863.47 5.443 1.412 7.74.942 2.298 2.26 4.257 3.956 5.877a17.746 17.746 0 0 0 5.876 3.728c2.222.867 4.651 1.3 7.288 1.3 2.561 0 4.972-.433 7.232-1.3 2.26-.866 4.219-2.109 5.876-3.729s2.957-3.578 3.898-5.876c.942-2.297 1.413-4.877 1.413-7.74 0-2.863-.47-5.443-1.413-7.74-.941-2.298-2.24-4.257-3.898-5.877-1.657-1.62-3.616-2.862-5.876-3.728-2.26-.867-4.67-1.3-7.232-1.3-2.637 0-5.066.433-7.288 1.3a17.746 17.746 0 0 0-5.876 3.729c-1.696 1.62-3.014 3.578-3.956 5.875-.941 2.298-1.412 4.878-1.412 7.741zm117.52-7.684c-2.335-3.39-4.99-5.97-7.966-7.74-2.976-1.77-6.875-2.656-11.696-2.656-5.575 0-10.038 1.62-13.39 4.859-3.353 3.24-5.029 7.646-5.029 13.221 0 2.712.452 5.18 1.356 7.401.904 2.223 2.166 4.125 3.786 5.707 1.62 1.582 3.559 2.806 5.819 3.672 2.26.867 4.746 1.3 7.458 1.3 4.746 0 8.644-.866 11.696-2.599 3.05-1.733 5.668-4.294 7.853-7.684l12.882 7.232c-3.164 5.951-7.44 10.396-12.826 13.334-5.386 2.938-11.846 4.407-19.379 4.407-5.047 0-9.718-.753-14.012-2.26-4.294-1.507-8.004-3.672-11.13-6.498-3.127-2.825-5.575-6.271-7.345-10.339-1.77-4.068-2.656-8.626-2.656-13.673 0-5.047.904-9.586 2.712-13.617 1.808-4.03 4.294-7.457 7.458-10.282 3.164-2.826 6.874-5.01 11.13-6.555C166.602.772 171.216 0 176.188 0c15.067 0 25.84 5.914 32.318 17.741l-12.882 7.345zm44.035 15.255h22.035l-9.492-24.069h-2.599l-9.944 24.069zm23.504-38.872l26.555 62.489H272.09l-3.955-9.153h-34.578l-3.842 9.153h-17.854l27.12-62.489h24.182zm155.705 20.679c-3.616-2.637-7.383-4.52-11.3-5.65-3.917-1.13-8.324-1.695-13.221-1.695-2.637 0-4.802.132-6.498.395-1.695.264-3.032.64-4.011 1.13-.98.49-1.638 1.036-1.978 1.639a3.858 3.858 0 0 0-.508 1.921c0 1.28.603 2.128 1.808 2.542 1.205.415 2.75.735 4.633.961l18.193 2.034c6.855.829 12.28 2.75 16.272 5.763 3.993 3.013 5.989 7.533 5.989 13.56 0 3.616-.847 6.723-2.543 9.323-1.695 2.599-4.011 4.745-6.949 6.44-2.938 1.696-6.422 2.957-10.452 3.786-4.03.829-8.381 1.243-13.052 1.243-6.479 0-12.317-.791-17.515-2.373-5.198-1.582-10.358-4.332-15.481-8.249l7.797-12.882c4.294 3.013 8.607 5.273 12.938 6.78 4.332 1.507 8.909 2.26 13.73 2.26 4.294 0 7.929-.49 10.904-1.469 2.976-.98 4.464-2.524 4.464-4.633 0-1.055-.264-1.883-.791-2.486-.527-.603-1.77-.98-3.729-1.13l-21.47-2.486c-6.63-.753-11.808-2.58-15.538-5.48-3.729-2.9-5.593-7.364-5.593-13.391 0-3.39.772-6.347 2.317-8.87 1.544-2.524 3.653-4.615 6.327-6.272 2.675-1.657 5.782-2.881 9.323-3.672C386.474.395 390.279 0 394.347 0c6.027 0 11.714.697 17.063 2.09 5.349 1.394 10.509 4.012 15.481 7.854l-8.023 12.204z"></path></symbol><symbol viewBox="0 0 465 66" id="icon-logo-ru"><path d="M71.077 1.469v62.489H54.466V16.385H34.352l-5.876 31.188c-1.055 5.8-3.277 9.982-6.667 12.543-3.39 2.561-7.797 3.842-13.221 3.842H0V48.929h8.023c2.335 0 3.729-1.168 4.181-3.503l8.249-43.957h50.624zM97.958 32.77c0 2.863.47 5.443 1.413 7.74.941 2.298 2.26 4.257 3.955 5.877a17.746 17.746 0 0 0 5.876 3.728c2.222.867 4.651 1.3 7.288 1.3 2.561 0 4.972-.433 7.232-1.3 2.26-.866 4.219-2.109 5.876-3.729s2.957-3.578 3.898-5.876c.942-2.297 1.413-4.877 1.413-7.74 0-2.863-.47-5.443-1.412-7.74-.942-2.298-2.242-4.257-3.899-5.877s-3.616-2.862-5.876-3.728c-2.26-.867-4.67-1.3-7.232-1.3-2.637 0-5.066.433-7.288 1.3a17.746 17.746 0 0 0-5.876 3.729c-1.696 1.62-3.014 3.578-3.955 5.875-.942 2.298-1.413 4.878-1.413 7.741zm53.675 0c0 4.897-.96 9.36-2.882 13.39-1.92 4.03-4.482 7.477-7.684 10.34-3.201 2.863-6.93 5.085-11.186 6.667-4.257 1.582-8.72 2.373-13.391 2.373-4.67 0-9.134-.791-13.39-2.373-4.257-1.582-7.986-3.804-11.188-6.667-3.201-2.863-5.762-6.31-7.684-10.34-1.92-4.03-2.881-8.493-2.881-13.39s.96-9.36 2.882-13.39c1.92-4.03 4.482-7.477 7.683-10.34 3.202-2.863 6.931-5.085 11.188-6.667C107.356.791 111.82 0 116.49 0s9.134.791 13.39 2.373c4.257 1.582 7.986 3.804 11.188 6.667 3.201 2.863 5.762 6.31 7.683 10.34 1.922 4.03 2.882 8.493 2.882 13.39zm26.655-31.301v22.035h14.69l15.029-22.035h19.21l-20.114 28.928 21.47 33.561h-19.775L193.43 38.759h-15.142v25.199H161.79V1.469h16.498zm83.833 38.872h22.035l-9.492-24.069h-2.599l-9.944 24.069zm23.504-38.872l26.555 62.489h-17.628l-3.955-9.153h-34.578l-3.842 9.153h-17.854l27.12-62.489h24.182zm101.235 0v62.489h-16.611V16.385h-20.114l-5.876 31.188c-1.055 5.8-3.277 9.982-6.667 12.543-3.39 2.561-7.797 3.842-13.221 3.842h-3.588l-6-15.029h9.023c2.335 0 3.729-1.168 4.181-3.503l8.249-43.957h50.624zm64.51 23.617c-2.335-3.39-4.99-5.97-7.966-7.74-2.976-1.77-6.875-2.656-11.696-2.656-5.575 0-10.038 1.62-13.39 4.859-3.353 3.24-5.029 7.646-5.029 13.221 0 2.712.452 5.18 1.356 7.401.904 2.223 2.166 4.125 3.786 5.707 1.62 1.582 3.559 2.806 5.819 3.672 2.26.867 4.746 1.3 7.458 1.3 4.746 0 8.644-.866 11.695-2.599 3.052-1.733 5.67-4.294 7.854-7.684l12.882 7.232c-3.164 5.951-7.44 10.396-12.826 13.334-5.386 2.938-11.846 4.407-19.379 4.407-5.047 0-9.718-.753-14.012-2.26-4.294-1.507-8.004-3.672-11.13-6.498-3.127-2.825-5.575-6.271-7.345-10.339-1.77-4.068-2.656-8.626-2.656-13.673 0-5.047.904-9.586 2.712-13.617 1.808-4.03 4.294-7.457 7.458-10.282 3.164-2.826 6.874-5.01 11.13-6.555C422.349.772 426.962 0 431.935 0c15.067 0 25.84 5.914 32.318 17.741l-12.882 7.345z"></path></symbol><symbol viewBox="0 0 34 32" id="icon-map-thin"><path d="M34.001 13.96V1.14a.69.69 0 0 0-1-.65l-.27.15-6.59 3.56a.65.65 0 0 1-.66 0L17.561.56a1.19 1.19 0 0 0-1.14 0c-2.42 1.24-4.87 2.45-7.3 3.67a.52.52 0 0 1-.53 0c-2.47-1.24-4.96-2.45-7.42-3.71a.75.75 0 0 0-1.17.72v25.41a.93.93 0 0 0 .59.94c2.594 1.28 5.18 2.573 7.76 3.88a1 1 0 0 0 1 0l7.37-3.7a.64.64 0 0 1 .64 0l8 3.71a1 1 0 0 0 1 0l7.12-3.88a.9.9 0 0 0 .52-.91V13.96zM8.171 29.47c0 .38 0 .38-.33.22l-6.2-3.09a.42.42 0 0 1-.27-.45V2.54c0-.3 0-.37.34-.21 2.047 1.033 4.1 2.053 6.16 3.06a.47.47 0 0 1 .31.5c-.006 7.86-.01 15.72-.01 23.58zm7.83-2.84c-2 1-4.08 2-6.12 3l-.34.16V5.87a.49.49 0 0 1 .29-.48l6.17-3.06.31-.15V26.1a.51.51 0 0 1-.31.53zm9.18 3.07v.2l-2.88-1.32-4.38-2c-.15-.07-.23-.13-.23-.32v-24a1.308 1.308 0 0 1 0-.14l1.22.57 5.97 2.7a.41.41 0 0 1 .29.43c-.006 7.966-.01 15.926-.01 23.88h.02zm7.14-3l-5.46 3-.33.16V5.89a.54.54 0 0 1 .3-.5l5.49-3a.45.45 0 0 1 .31-.11v23.84a.54.54 0 0 1-.33.54l.02.04z"></path></symbol><symbol viewBox="0 0 15 15" id="icon-map"><path d="M14.45.59l-5 1.64L5 0 .56 2.19 0 2.48V15l.56-.22 1.11-.55L5 12.59l4.45 2.19 5-1.64.56-.19V.34zM5.83 2.05l2.69 1.33v9.31l-2.69-1.33zm4.67 1.44l2.84-.93v9.31l-2.84.93zm-8.83-.2l2.5-1.23v9.31l-2.5 1.23z"></path></symbol><symbol viewBox="0 0 19 13" id="icon-photos"><path d="M13 4H2a2 2 0 0 0-2 2v5a2 2 0 0 0 2 2h11a2 2 0 0 0 2-2V6a2 2 0 0 0-2-2zm0 7H2V6h11zm4-11H6a2 2 0 0 0-2 2v1h2V2h11v5h-1v2h1a2 2 0 0 0 2-2V2a2 2 0 0 0-2-2z"></path></symbol><symbol viewBox="0 0 32 41" id="icon-street-view-thin"><path d="M16.153.486a4.799 4.799 0 0 0-4.469 6.908 4.802 4.802 0 0 0 4.613 2.68 4.76 4.76 0 0 0 4.489-5.09A4.8 4.8 0 0 0 16.153.486zm-.131 1.785a3.19 3.19 0 0 1 3.185 3.012 3.171 3.171 0 0 1-3.21 3.23 3.16 3.16 0 0 1-3.16-3.23 3.19 3.19 0 0 1 3.185-3.012zm-.225 8.611a15.11 15.11 0 0 0-1.34.08 9.225 9.225 0 0 0-3.63.952 4.72 4.72 0 0 0-2.83 4.52v7.419a2.27 2.27 0 0 0 1.699 2.17c.37.087.752.114 1.13.08.29 0 .36.07.36.35v8.561a2.132 2.132 0 0 0 2.15 2.269h5.301a2.132 2.132 0 0 0 2.16-2.25v-8.08c0-.27-.08-.61.05-.79.13-.18.509-.05.769-.06a2.293 2.293 0 0 0 1.752-.701 2.293 2.293 0 0 0 .628-1.78v-7.59a4.18 4.18 0 0 0-.71-2.34 5.86 5.86 0 0 0-3.5-2.339 15.139 15.139 0 0 0-3.989-.47zm.362 1.56a11.9 11.9 0 0 1 3.918.68c.694.25 1.302.695 1.75 1.282.373.487.574 1.085.57 1.699-.02 2.51-.01 5-.01 7.49-.002.69-.194.89-.89.89-.7 0-.69 0-.69-.7v-5.54c0-.6-.3-1-.81-1s-.811.35-.811 1v16.719c0 .58-.129.711-.719.711h-4.89c-.65 0-.76-.11-.76-.75v-16.68c0-.78-.62-1.2-1.23-.84a.87.87 0 0 0-.391.84v5.83c0 .32-.05.48-.41.42a2.745 2.745 0 0 0-.409 0c-.54 0-.771-.229-.771-.769V16.463a3.138 3.138 0 0 1 2-3.149 8.174 8.174 0 0 1 3.22-.8c.444-.049.889-.073 1.333-.071zm-6.713 17.27c-1.272.19-2.53.459-3.77.801a13.262 13.262 0 0 0-4.24 1.91 3.339 3.339 0 0 0-1.44 2.09c-.116 1 .33 1.982 1.16 2.551a10.688 10.688 0 0 0 4.34 2.11 38.716 38.716 0 0 0 10.631 1.34 48.207 48.207 0 0 0 6.62-.54 25.004 25.004 0 0 0 5.9-1.56 7.372 7.372 0 0 0 2.48-1.59 2.56 2.56 0 0 0 0-3.89 7.225 7.225 0 0 0-2.511-1.61 23.706 23.706 0 0 0-5.94-1.58c-.58-.08-.99.16-1.07.65-.08.49.221.85.781.94 1.38.203 2.743.505 4.08.9a8.718 8.718 0 0 1 3.35 1.67c.77.69.76 1.25 0 1.94a6.53 6.53 0 0 1-2.07 1.189 30.113 30.113 0 0 1-10.07 1.79 41.636 41.636 0 0 1-8.891-.56 20.478 20.478 0 0 1-5.27-1.56 4.705 4.705 0 0 1-1.549-1.09 1.001 1.001 0 0 1 0-1.48c.275-.302.59-.56.94-.77a12.382 12.382 0 0 1 3.22-1.299 31.973 31.973 0 0 1 3.569-.74.792.792 0 0 0 .7-.93.811.811 0 0 0-.95-.682z"></path></symbol></svg>