<svg xmlns="http://www.w3.org/2000/svg" style="position: absolute; width: 0; height: 0;"><symbol viewBox="0 0 15 15" id="icon-map"><path d="M14.45.59l-5 1.64L5 0 .56 2.19 0 2.48V15l.56-.22 1.11-.55L5 12.59l4.45 2.19 5-1.64.56-.19V.34zM5.83 2.05l2.69 1.33v9.31l-2.69-1.33zm4.67 1.44l2.84-.93v9.31l-2.84.93zm-8.83-.2l2.5-1.23v9.31l-2.5 1.23z"></path></symbol><symbol viewBox="0 0 19 13" id="icon-photos"><path d="M13 4H2a2 2 0 0 0-2 2v5a2 2 0 0 0 2 2h11a2 2 0 0 0 2-2V6a2 2 0 0 0-2-2zm0 7H2V6h11zm4-11H6a2 2 0 0 0-2 2v1h2V2h11v5h-1v2h1a2 2 0 0 0 2-2V2a2 2 0 0 0-2-2z"></path></symbol></svg>