<svg xmlns="http://www.w3.org/2000/svg" style="position: absolute; width: 0; height: 0;"><symbol viewBox="0 0 25 19" id="icon-filter"><path d="M4 4a4 4 0 0 1 .14-1H0v2h4.14A4 4 0 0 1 4 4zM11.86 3A4 4 0 0 1 12 4a4 4 0 0 1-.14 1H25V3zM13 15a4 4 0 0 1 .14-1H0v2h13.14a4 4 0 0 1-.14-1zM20.86 14a3.61 3.61 0 0 1 0 2H25v-2z"></path><path d="M8 2a2 2 0 1 1-2 2 2 2 0 0 1 2-2m0-2a4 4 0 1 0 4 4 4 4 0 0 0-4-4zM17 13a2 2 0 1 1-2 2 2 2 0 0 1 2-2m0-2a4 4 0 1 0 4 4 4 4 0 0 0-4-4z"></path></symbol><symbol viewBox="0 0 11 14.3" id="icon-lock"><path d="M5.5 0a3.86 3.86 0 0 0-3.85 3.85V5.5H0v8.8h11V5.5H9.35V3.85A3.86 3.86 0 0 0 5.5 0zm0 1.1a2.75 2.75 0 0 1 2.75 2.75V5.5h-5.5V3.85A2.75 2.75 0 0 1 5.5 1.1zM1.1 6.6h8.8v6.6H1.1z"></path></symbol><symbol viewBox="0 0 15 15" id="icon-map"><path d="M14.45.59l-5 1.64L5 0 .56 2.19 0 2.48V15l.56-.22 1.11-.55L5 12.59l4.45 2.19 5-1.64.56-.19V.34zM5.83 2.05l2.69 1.33v9.31l-2.69-1.33zm4.67 1.44l2.84-.93v9.31l-2.84.93zm-8.83-.2l2.5-1.23v9.31l-2.5 1.23z"></path></symbol><symbol viewBox="0 0 19 13" id="icon-photos"><path d="M13 4H2a2 2 0 0 0-2 2v5a2 2 0 0 0 2 2h11a2 2 0 0 0 2-2V6a2 2 0 0 0-2-2zm0 7H2V6h11zm4-11H6a2 2 0 0 0-2 2v1h2V2h11v5h-1v2h1a2 2 0 0 0 2-2V2a2 2 0 0 0-2-2z"></path></symbol></svg>