<svg xmlns="http://www.w3.org/2000/svg" xmlns:xlink="http://www.w3.org/1999/xlink" viewBox="0 0 465 66" version="1.1">
  <path d="M71.077,1.469 L71.077,63.958 L54.466,63.958 L54.466,16.385 L34.352,16.385 L28.476,47.573 C27.421328,53.373696 25.199017,57.554654 21.809,60.116 C18.418983,62.677346 14.012027,63.958 8.588,63.958 L0,63.958 L0,48.929 L8.023,48.929 C10.358345,48.929 11.751998,47.761345 12.204,45.426 L20.453,1.469 L71.077,1.469 Z M97.958,32.77 C97.958,35.632681 98.428829,38.212822 99.3705,40.5105 C100.312171,42.808178 101.630492,44.766825 103.3255,46.3865 C105.020508,48.006175 106.979156,49.249162 109.2015,50.1155 C111.423844,50.981838 113.85332,51.415 116.49,51.415 C119.051346,51.415 121.461989,50.981838 123.722,50.1155 C125.982011,49.249162 127.940658,48.006175 129.598,46.3865 C131.255342,44.766825 132.554829,42.808178 133.4965,40.5105 C134.438171,38.212822 134.909,35.632681 134.909,32.77 C134.909,29.907319 134.438171,27.327178 133.4965,25.0295 C132.554829,22.731822 131.255342,20.773175 129.598,19.1535 C127.940658,17.533825 125.982011,16.290838 123.722,15.4245 C121.461989,14.558162 119.051346,14.125 116.49,14.125 C113.85332,14.125 111.423844,14.558162 109.2015,15.4245 C106.979156,16.290838 105.020508,17.533825 103.3255,19.1535 C101.630492,20.773175 100.312171,22.731822 99.3705,25.0295 C98.428829,27.327178 97.958,29.907319 97.958,32.77 Z M151.633,32.77 C151.633,37.666691 150.67251,42.130147 148.7515,46.1605 C146.83049,50.190853 144.269183,53.637319 141.0675,56.5 C137.865817,59.362681 134.136855,61.584992 129.8805,63.167 C125.624145,64.749008 121.16069,65.54 116.49,65.54 C111.81931,65.54 107.355855,64.749008 103.0995,63.167 C98.843145,61.584992 95.114183,59.362681 91.9125,56.5 C88.710817,53.637319 86.14951,50.190853 84.2285,46.1605 C82.30749,42.130147 81.347,37.666691 81.347,32.77 C81.347,27.873309 82.30749,23.409853 84.2285,19.3795 C86.14951,15.349147 88.710817,11.902681 91.9125,9.04 C95.114183,6.177319 98.843145,3.955008 103.0995,2.373 C107.355855,0.790992 111.81931,0 116.49,0 C121.16069,0 125.624145,0.790992 129.8805,2.373 C134.136855,3.955008 137.865817,6.177319 141.0675,9.04 C144.269183,11.902681 146.83049,15.349147 148.7515,19.3795 C150.67251,23.409853 151.633,27.873309 151.633,32.77 Z M178.288,1.469 L178.288,23.504 L192.978,23.504 L208.007,1.469 L227.217,1.469 L207.103,30.397 L228.573,63.958 L208.798,63.958 L193.43,38.759 L178.288,38.759 L178.288,63.958 L161.79,63.958 L161.79,1.469 L178.288,1.469 Z M262.121,40.341 L284.156,40.341 L274.664,16.272 L272.065,16.272 L262.121,40.341 Z M285.625,1.469 L312.18,63.958 L294.552,63.958 L290.597,54.805 L256.019,54.805 L252.177,63.958 L234.323,63.958 L261.443,1.469 L285.625,1.469 Z M386.86,1.469 L386.86,63.958 L370.249,63.958 L370.249,16.385 L350.135,16.385 L344.259,47.573 C343.204328,53.373696 340.982017,57.554654 337.592,60.116 C334.201983,62.677346 329.795027,63.958 324.371,63.958 L320.783,63.958 L314.783,48.929 L323.806,48.929 C326.141345,48.929 327.534998,47.761345 327.987,45.426 L336.236,1.469 L386.86,1.469 Z M451.37,25.086 C449.034655,21.695983 446.379182,19.115842 443.4035,17.3455 C440.427818,15.575158 436.529357,14.69 431.708,14.69 C426.133305,14.69 421.66985,16.30965 418.3175,19.549 C414.96515,22.78835 413.289,27.195305 413.289,32.77 C413.289,35.482014 413.740995,37.949156 414.645,40.1715 C415.549005,42.393844 416.810825,44.295992 418.4305,45.878 C420.050175,47.460008 421.989989,48.684162 424.25,49.5505 C426.510011,50.416838 428.995986,50.85 431.708,50.85 C436.454024,50.85 440.352485,49.983675 443.4035,48.251 C446.454515,46.518325 449.072322,43.957017 451.257,40.567 L464.139,47.799 C460.974984,53.750363 456.69986,58.194985 451.3135,61.133 C445.92714,64.071015 439.467371,65.54 431.934,65.54 C426.886641,65.54 422.216021,64.786674 417.922,63.28 C413.627979,61.773326 409.917849,59.607514 406.7915,56.7825 C403.665151,53.957486 401.216842,50.51102 399.4465,46.443 C397.676158,42.37498 396.791,37.817359 396.791,32.77 C396.791,27.722641 397.694991,23.183853 399.503,19.1535 C401.311009,15.123147 403.796984,11.695514 406.961,8.8705 C410.125016,6.045486 413.835145,3.860841 418.0915,2.3165 C422.347855,0.772159 426.961975,0 431.934,0 C447.000742,0 457.773301,5.913608 464.252,17.741 L451.37,25.086 Z"></path>
</svg>