<svg xmlns="http://www.w3.org/2000/svg" xmlns:xlink="http://www.w3.org/1999/xlink" viewBox="0 0 429 66" version="1.1">
  <path d="M16.611,1.469 L16.611,48.929 L57.856,48.929 L57.856,63.958 L0,63.958 L0,1.469 L16.611,1.469 Z M315.01,1.042 L315.01,48.502 L356.255,48.502 L356.255,63.531 L298.399,63.531 L298.399,1.042 L315.01,1.042 Z M131.779,32.77 C131.779,37.666691 130.81851,42.130147 128.8975,46.1605 C126.97649,50.190853 124.415183,53.637319 121.2135,56.5 C118.011817,59.362681 114.282855,61.584992 110.0265,63.167 C105.770145,64.749008 101.30669,65.54 96.636,65.54 C91.96531,65.54 87.501855,64.749008 83.2455,63.167 C78.989145,61.584992 75.260183,59.362681 72.0585,56.5 C68.856817,53.637319 66.29551,50.190853 64.3745,46.1605 C62.45349,42.130147 61.493,37.666691 61.493,32.77 C61.493,27.873309 62.45349,23.409853 64.3745,19.3795 C66.29551,15.349147 68.856817,11.902681 72.0585,9.04 C75.260183,6.177319 78.989145,3.955008 83.2455,2.373 C87.501855,0.790992 91.96531,0 96.636,0 C101.30669,0 105.770145,0.790992 110.0265,2.373 C114.282855,3.955008 118.011817,6.177319 121.2135,9.04 C124.415183,11.902681 126.97649,15.349147 128.8975,19.3795 C130.81851,23.409853 131.779,27.873309 131.779,32.77 Z M78.104,32.77 C78.104,35.632681 78.574829,38.212822 79.5165,40.5105 C80.458171,42.808178 81.776492,44.766825 83.4715,46.3865 C85.166508,48.006175 87.125156,49.249162 89.3475,50.1155 C91.569844,50.981838 93.99932,51.415 96.636,51.415 C99.197346,51.415 101.607989,50.981838 103.868,50.1155 C106.128011,49.249162 108.086658,48.006175 109.744,46.3865 C111.401342,44.766825 112.700829,42.808178 113.6425,40.5105 C114.584171,38.212822 115.055,35.632681 115.055,32.77 C115.055,29.907319 114.584171,27.327178 113.6425,25.0295 C112.700829,22.731822 111.401342,20.773175 109.744,19.1535 C108.086658,17.533825 106.128011,16.290838 103.868,15.4245 C101.607989,14.558162 99.197346,14.125 96.636,14.125 C93.99932,14.125 91.569844,14.558162 89.3475,15.4245 C87.125156,16.290838 85.166508,17.533825 83.4715,19.1535 C81.776492,20.773175 80.458171,22.731822 79.5165,25.0295 C78.574829,27.327178 78.104,29.907319 78.104,32.77 Z M195.624,25.086 C193.288655,21.695983 190.633182,19.115842 187.6575,17.3455 C184.681818,15.575158 180.783357,14.69 175.962,14.69 C170.387305,14.69 165.92385,16.30965 162.5715,19.549 C159.21915,22.78835 157.543,27.195305 157.543,32.77 C157.543,35.482014 157.994995,37.949156 158.899,40.1715 C159.803005,42.393844 161.064825,44.295992 162.6845,45.878 C164.304175,47.460008 166.243989,48.684162 168.504,49.5505 C170.764011,50.416838 173.249986,50.85 175.962,50.85 C180.708024,50.85 184.606485,49.983675 187.6575,48.251 C190.708515,46.518325 193.326322,43.957017 195.511,40.567 L208.393,47.799 C205.228984,53.750363 200.95386,58.194985 195.5675,61.133 C190.18114,64.071015 183.721371,65.54 176.188,65.54 C171.140641,65.54 166.470021,64.786674 162.176,63.28 C157.881979,61.773326 154.171849,59.607514 151.0455,56.7825 C147.919151,53.957486 145.470842,50.51102 143.7005,46.443 C141.930158,42.37498 141.045,37.817359 141.045,32.77 C141.045,27.722641 141.948991,23.183853 143.757,19.1535 C145.565009,15.123147 148.050984,11.695514 151.215,8.8705 C154.379016,6.045486 158.089145,3.860841 162.3455,2.3165 C166.601855,0.772159 171.215975,0 176.188,0 C191.254742,0 202.027301,5.913608 208.506,17.741 L195.624,25.086 Z M239.659,40.341 L261.694,40.341 L252.202,16.272 L249.603,16.272 L239.659,40.341 Z M263.163,1.469 L289.718,63.958 L272.09,63.958 L268.135,54.805 L233.557,54.805 L229.715,63.958 L211.861,63.958 L238.981,1.469 L263.163,1.469 Z M418.868,22.148 C415.251982,19.51132 411.485353,17.628006 407.568,16.498 C403.650647,15.367994 399.243691,14.803 394.347,14.803 C391.71032,14.803 389.544508,14.934832 387.8495,15.1985 C386.154492,15.462168 384.817338,15.838831 383.838,16.3285 C382.858662,16.818169 382.199502,17.36433 381.8605,17.967 C381.521498,18.56967 381.352,19.209997 381.352,19.888 C381.352,21.168673 381.954661,22.016165 383.16,22.4305 C384.365339,22.844835 385.909657,23.164999 387.793,23.391 L405.986,25.425 C412.841368,26.253671 418.265313,28.174652 422.258,31.188 C426.250687,34.201348 428.247,38.721303 428.247,44.748 C428.247,48.364018 427.399508,51.471487 425.7045,54.0705 C424.009492,56.669513 421.693015,58.816492 418.755,60.5115 C415.816985,62.206508 412.332853,63.468329 408.3025,64.297 C404.272147,65.125671 399.92169,65.54 395.251,65.54 C388.772301,65.54 382.934026,64.749008 377.736,63.167 C372.537974,61.584992 367.377692,58.835353 362.255,54.918 L370.052,42.036 C374.346021,45.049348 378.658812,47.309326 382.9905,48.816 C387.322188,50.322674 391.898643,51.076 396.72,51.076 C401.014021,51.076 404.648818,50.586338 407.6245,49.607 C410.600182,48.627662 412.088,47.083344 412.088,44.974 C412.088,43.919328 411.824336,43.09067 411.297,42.488 C410.769664,41.88533 409.526676,41.508667 407.568,41.358 L386.098,38.872 C379.468634,38.118663 374.289519,36.291848 370.5605,33.3915 C366.831481,30.491152 364.967,26.027697 364.967,20.001 C364.967,16.610983 365.739159,13.654179 367.2835,11.1305 C368.827841,8.606821 370.937153,6.516342 373.6115,4.859 C376.285847,3.201658 379.393316,1.977504 382.934,1.1865 C386.474684,0.395496 390.27898,0 394.347,0 C400.373697,0 406.061307,0.696826 411.41,2.0905 C416.758693,3.484174 421.918975,6.101981 426.891,9.944 L418.868,22.148 Z"></path>
</svg>