<?xml version="1.0" encoding="UTF-8" standalone="no"?>
<svg xmlns:svg="http://www.w3.org/2000/svg" xmlns="http://www.w3.org/2000/svg" viewBox="0 0 16 16">
  <path d="M 6.6212386,0 C 2.9703895,0 0,2.9703895 0,6.6212386 c 0,3.6508494 2.9703895,6.6212384 6.6212386,6.6212384 1.4587098,0 2.8034579,-0.479593 3.8995274,-1.281273 L 14.559563,16 16,14.559563 11.961204,10.520766 C 12.762883,9.4246965 13.242477,8.0799484 13.242477,6.6212386 13.242477,2.9703895 10.272088,0 6.6212386,0 Z m 0,2.0373042 c 2.5272758,0 4.5839344,2.0566586 4.5839344,4.5839344 0,2.5272758 -2.0566586,4.5839344 -4.5839344,4.5839344 -2.5272758,0 -4.5839344,-2.0566586 -4.5839344,-4.5839344 0,-2.5272758 2.0566586,-4.5839344 4.5839344,-4.5839344 z" />
</svg>