<svg xmlns="http://www.w3.org/2000/svg" viewBox="0 0 34 32" version="1.1">
  <path
    d="m 34.001234,13.959786 0,-12.82 C 34.013331,0.89443576 33.894075,0.66115496 33.688113,0.52727956 33.48215,0.39340406 33.220544,0.37912418 33.001234,0.48978596 l -0.27,0.15 -6.59,3.56000004 c -0.203637,0.12 -0.456364,0.12 -0.66,0 l -7.92,-3.64000004 c -0.355276,-0.19385975 -0.784725,-0.19385975 -1.14,0 -2.42,1.24000004 -4.87,2.45000004 -7.3000005,3.67000004 -0.1634102,0.096788 -0.3665897,0.096788 -0.53,0 -2.47,-1.24 -4.96,-2.45 -7.42,-3.71000004 C 0.92648345,0.35018218 0.60457804,0.3414346 0.35097821,0.49749606 0.09737837,0.65355746 -0.0398773,0.94486576 0.00123354,1.239786 l 0,25.41 c -0.03233052,0.409203 0.20743823,0.791208 0.59,0.94 2.59333336,1.28 5.17999996,2.573333 7.75999996,3.88 0.3094011,0.178633 0.6905989,0.178633 1,0 l 7.3700005,-3.7 c 0.198016,-0.114325 0.441983,-0.114325 0.64,0 l 8,3.71 c 0.309401,0.178633 0.690598,0.178633 1,0 l 7.12,-3.88 c 0.350295,-0.160707 0.559387,-0.526617 0.52,-0.91 l 0,-12.73 z m -25.8300005,15.51 c 0,0.38 0,0.38 -0.33,0.22 l -6.2,-3.09 c -0.1841685,-0.06839 -0.2963215,-0.255314 -0.27,-0.45 l 0,-11.82 0,-11.79 c 0,-0.3 0,-0.37 0.34,-0.21 2.0466667,1.0333333 4.1,2.0533333 6.16,3.06 0.207763,0.073394 0.3366472,0.2812717 0.31,0.5 -0.00667,7.86 -0.01,15.72 -0.01,23.58 z m 7.8300005,-2.84 c -2,1 -4.08,2 -6.1200005,3 l -0.34,0.16 0,-0.38 0,-23.54 c -0.0135,-0.2049692 0.1022785,-0.3966019 0.29,-0.48 l 6.1700005,-3.06 0.31,-0.15 0,0.41 0,23.51 c 0.0265,0.226047 -0.09998,0.442295 -0.31,0.53 z m 9.18,3.07 0,0.2 -2.88,-1.32 -4.38,-2 c -0.15,-0.07 -0.23,-0.13 -0.23,-0.32 l 0,-24 c -0.0025,-0.046634 -0.0025,-0.093366 0,-0.14 l 1.22,0.57 5.97,2.7 c 0.186562,0.056215 0.30779,0.2359664 0.29,0.43 -0.0067,7.966667 -0.01,15.926667 -0.01,23.88 l 0.02,0 z m 7.14,-3 c -1.82,1 -3.64,2 -5.46,3 l -0.33,0.16 0,-0.47 0,-23.5 c -0.0063,-0.2109739 0.110876,-0.4062863 0.3,-0.5 1.83,-1 3.66,-2 5.49,-3 0.08575,-0.074473 0.196487,-0.1137673 0.31,-0.11 l 0,0.34 0,23.5 c 0.01805,0.232351 -0.114999,0.450069 -0.33,0.54 l 0.02,0.04 z" />
</svg>