<svg xmlns="http://www.w3.org/2000/svg" viewBox="0 0 15 20">
  <path d="m 10,16 -5,0 0,1.001043 C 5,17.552752 4.5573397,18 4.0010434,18 L 2.9989566,18 C 2.4472481,18 2,17.55734 2,17.001043 L 2,16 0,16 0,4 C 2.2186447,2.5328556 4.5312792,2 8,2 c 2.468912,0 4.781547,0.5328556 7,2 l 0,12 -2,0 0,1.001043 C 13,17.552752 12.55734,18 12.001043,18 l -1.002086,0 C 10.447248,18 10,17.55734 10,17.001043 L 10,16 Z M 2,5.9998075 2,9.0001925 C 2,9.5562834 2.4457352,10 2.9955775,10 l 9.0088455,0 C 12.555163,10 13,9.5523709 13,9.0001925 l 0,-3.000385 C 13,5.4437166 12.554265,5 12.004423,5 L 2.9955775,5 C 2.444837,5 2,5.4476291 2,5.9998075 Z M 2,13.5 C 2,14.334203 2.6715729,15 3.5,15 4.3342028,15 5,14.328427 5,13.5 5,12.665797 4.3284271,12 3.5,12 2.6657972,12 2,12.671573 2,13.5 Z m 8,0 C 10,14.334203 10.671573,15 11.5,15 12.334203,15 13,14.328427 13,13.5 13,12.665797 12.328427,12 11.5,12 10.665797,12 10,12.671573 10,13.5 Z" />
</svg>