<svg xmlns="http://www.w3.org/2000/svg" viewBox="0 0 15 20">
  <path d="m 8.7578101,0 a 2,2 0 0 0 -2,2 2,2 0 0 0 2,2 A 2,2 0 0 0 10.75781,2 2,2 0 0 0 8.7578101,0 Z M 7.2382789,5.03125 C 7.0308611,5.0445417 6.8222992,5.0771394 6.615232,5.1289062 L 6.599607,5.1347662 4.4824195,5.7382818 C 3.5647159,6.0004817 2.825731,6.5963608 2.3261695,7.3457031 L 0.9257789,9.4453125 2.5898413,10.554688 3.990232,8.4550781 C 4.2906704,8.0044205 4.5509043,7.7999084 5.0332007,7.6621094 L 6.0820289,7.3613281 5.3574195,10.699219 c -0.2,0.7 0.1,1.40039 0.5,1.90039 l 2.8554687,3.107422 0.1445313,0.19336 L 10.357419,20 l 2.09961,0 c -0.4,-1 -1.398828,-3.499219 -1.798828,-4.699219 L 8.3261695,11.923828 8.2578101,11.599609 8.9648413,8.3828125 9.349607,9.21875 9.3222632,9.1503906 c 0.405818,1.0821814 1.2970358,1.8150004 2.2851558,2.1855474 l 0.01563,0.0078 1.81836,0.605469 0.632812,-1.898438 -1.765625,-0.5878904 C 11.696707,9.2334471 11.387539,8.9670374 11.193357,8.4492188 l -0.01172,-0.035156 -0.615234,-1.3339844 0.03125,0.078125 C 10.090503,5.7635351 8.6902032,4.9382084 7.2382789,5.03125 Z m -2.28125,8.269531 -0.8984376,2.898438 -3,3.800781 2.2988282,0 L 5.6582007,17.400391 6.4570289,15 l -1.5,-1.699219 z" />
</svg>