<svg xmlns="http://www.w3.org/2000/svg" viewBox="0 0 26 21">
  <path d="m 17.673828,0.5 c -0.674662,0 -1.921139,0.0800918 -3.103516,0.8398437 -1.663926,0.032817 -2.734642,0.3898745 -3.365234,1.0468751 -0.645622,0.672661 -0.75,1.5519868 -0.75,2.3320312 0,0.5347711 0.119594,1.405994 0.166016,1.7675781 C 10.088895,6.7080622 9.6749678,7.1650769 9.75,7.7714844 a 0.50005,0.50005 0 0 0 0,0.00195 l 0.2070312,1.6523437 c 0.069206,0.560436 0.5187868,0.9383339 1.0507808,1.0605469 0.169803,1.132304 0.681534,2.200643 1.464844,3.033203 l -0.277344,1.111328 -3.1132808,0.779297 C 6.9791356,15.936159 5.5,17.830188 5.5,19.998047 L 5.5,20 A 0.50005,0.50005 0 0 0 6,20.5 l 19,0 A 0.50005,0.50005 0 0 0 25.5,20 l 0,-0.002 c 0,-2.113831 -1.417817,-3.946663 -3.4375,-4.525391 a 0.50005,0.50005 0 0 0 -0.144531,-0.0625 l -3.115235,-0.779297 -0.259765,-1.041015 c 0.833451,-0.850679 1.384252,-1.961435 1.552734,-3.142578 0.47921,-0.154671 0.881764,-0.5012513 0.947266,-1.0214848 L 21.25,7.7734375 C 21.3218,7.1978967 20.944592,6.7636357 20.457031,6.5214844 l 0.07617,-1.5859375 0.275391,-0.2773438 a 0.50005,0.50005 0 0 0 0.01172,-0.00977 C 21.155903,4.2915155 21.357422,3.8383659 21.357422,3.36523 21.357422,2.8920941 21.177329,2.4265264 20.875,1.9648393 20.234881,0.98738113 19.090444,0.5 17.673828,0.5 Z m 0,1 c 1.203384,0 1.9294,0.3511345 2.363281,1.0136719 0.232672,0.3553129 0.320313,0.6381984 0.320313,0.8515625 0,0.2119408 -0.06736,0.3836092 -0.263672,0.59375 -0.0013,0.00141 -6.23e-4,0.00249 -0.002,0.00391 l -0.402344,0.4023438 a 0.50005,0.50005 0 0 0 -0.146484,0.328125 l -0.09961,2.0683594 A 0.50005,0.50005 0 0 0 19.9375,7.2851562 c 0.20319,0.00248 0.345355,0.1625269 0.320312,0.3632813 l -0.207031,1.6523437 c -0.02104,0.1670804 -0.15502,0.2871094 -0.324219,0.2871094 l -0.03906,0 a 0.50005,0.50005 0 0 0 -0.498049,0.4589844 c -0.09006,1.135972 -0.673657,2.313742 -1.519531,3.072266 a 0.50005,0.50005 0 0 0 -0.152344,0.49414 l 0.388672,1.552735 a 0.50005,0.50005 0 0 0 0.363281,0.363281 l 3.404297,0.851562 c 1.48257,0.37084 2.436309,1.643761 2.654297,3.119141 l -17.65625,0 c 0.2179879,-1.47538 1.1717274,-2.748301 2.6542969,-3.119141 l 3.4023441,-0.851562 a 0.50005,0.50005 0 0 0 0.365234,-0.363281 l 0.404297,-1.621094 A 0.50005,0.50005 0 0 0 13.355469,13.058594 C 12.546825,12.299932 11.993654,11.152798 11.90625,10.046875 a 0.50005,0.50005 0 0 0 -0.5,-0.4589844 l -0.132812,0 c -0.169199,0 -0.303785,-0.1196765 -0.324219,-0.2851562 L 10.742188,7.6484375 C 10.718071,7.4456462 10.86177,7.2832031 11.066406,7.2832031 l 0.08399,0 a 0.50005,0.50005 0 0 0 0.496093,-0.5625 c 0,0 -0.191406,-1.6094357 -0.191406,-2.0019531 0,-0.6919556 0.09153,-1.243536 0.472656,-1.640625 0.381128,-0.397089 1.156691,-0.7361395 2.751954,-0.7519531 a 0.50005,0.50005 0 0 0 0.285156,-0.09375 C 15.93394,1.5392059 16.998625,1.5 17.673828,1.5 Z m -8.6914061,1 A 0.50005,0.50005 0 0 0 8.9472659,2.50195 C 8.4915001,2.55083 7.9182238,2.7508093 7.3632812,3.078125 6.0929177,3.097817 5.2589642,3.3706297 4.7539062,3.8964844 c -0.5118437,0.5329199 -0.5917968,1.2247013 -0.5917968,1.8125 0,0.3970349 0.077279,0.9300589 0.1171875,1.2382812 C 3.8866805,7.1566778 3.5841966,7.5125266 3.6425781,7.9824219 L 3.7949219,9.203125 c 0.054245,0.438133 0.3937057,0.7291046 0.796875,0.857422 0.1361338,0.811263 0.5004372,1.56681 1.0527343,2.175781 l -0.171875,0.689453 -2.2265624,0.556641 C 1.6340101,13.885533 0.5,15.336954 0.5,16.998047 L 0.5,17 A 0.50005,0.50005 0 0 0 1,17.5 l 4.0859375,0 a 0.50005,0.50005 0 1 0 0,-1 l -3.4140625,0 C 1.8756716,15.532618 2.4967341,14.699114 3.4882812,14.451172 L 6.0058594,13.822266 A 0.50005,0.50005 0 0 0 6.3691406,13.458984 L 6.6679688,12.263672 A 0.50005,0.50005 0 0 0 6.5253906,11.777344 C 5.9530375,11.241037 5.558013,10.418596 5.4960938,9.6367188 a 0.50005,0.50005 0 0 0 -0.5,-0.4609376 l -0.099609,0 c -0.059521,0 -0.1022599,-0.038234 -0.109375,-0.095703 L 4.6347656,7.859375 a 0.50005,0.50005 0 0 0 0,-0.00195 c -0.00941,-0.074622 0.033171,-0.12305 0.109375,-0.12305 l 0.064453,0 a 0.50005,0.50005 0 0 0 0.4960937,-0.5625 c 0,0 -0.1425781,-1.2063289 -0.1425781,-1.4628906 0,-0.4994908 0.065151,-0.8616063 0.3125,-1.1191406 C 5.7219586,4.3323094 6.2549003,4.0838275 7.4160156,4.0722656 A 0.50005,0.50005 0 0 0 7.703125,3.9804688 C 8.157505,3.6558338 8.6261746,3.5437917 9.0527344,3.4980469 A 0.5002603,0.5002603 0 1 0 8.9824219,2.5 Z" />
</svg>