<svg xmlns="http://www.w3.org/2000/svg" viewBox="0 0 16 16">
  <path d="m 7.9997914,0.84674821 c -0.1655334,0 -0.3320275,0.094384 -0.3935113,0.28451059 L 6.1190657,5.7092928 C 6.0632572,5.8795558 5.9043303,5.9938034 5.7255542,5.9938034 l -4.81081537,0 c -0.40106386,0 -0.56736584,0.514543 -0.24386622,0.7500734 L 4.5634947,9.5723554 c 0.1447236,0.1049957 0.2054536,0.2916047 0.1496452,0.4618676 l -1.485367,4.576186 c -0.1239136,0.3812 0.3110846,0.697399 0.6355302,0.461868 l 3.8926221,-2.828478 c 0.1447235,-0.104996 0.3430089,-0.104996 0.4877324,0 l 3.8926214,2.828478 c 0.324446,0.235531 0.761292,-0.08067 0.637378,-0.461868 l -1.487215,-4.576186 c -0.05581,-0.1702629 0.004,-0.3568719 0.149645,-0.4618676 L 15.32871,6.7438768 C 15.653155,6.5083464 15.485907,5.9938034 15.084843,5.9938034 l -4.810814,0 c -0.178777,0 -0.3377038,-0.1142476 -0.3935118,-0.2845106 L 8.3933028,1.1312588 C 8.330873,0.94018591 8.1662708,0.84674821 7.9997914,0.84674821 Z" />
</svg>