<svg xmlns="http://www.w3.org/2000/svg" viewBox="0 0 32 41" version="1.1">
  <path
    d="m 16.152725,0.48584844 c -1.407382,-0.0457724 -2.792582,0.52909366 -3.755859,1.62109376 -1.28437,1.4560001 -1.566665,3.5433743 -0.712891,5.2871094 0.853773,1.7437351 2.675563,2.8012964 4.613281,2.6796874 1.274265,-0.06918 2.466349,-0.64846 3.310547,-1.6054687 0.844198,-0.9570087 1.268083,-2.2114361 1.177734,-3.484375 C 20.664424,3.0461459 19.389751,1.3712409 17.553116,0.74170779 17.093957,0.58432449 16.621852,0.5011059 16.152725,0.48584844 Z M 16.021866,2.2710047 c 1.692427,0 3.090826,1.3219444 3.185547,3.0117187 0.01631,0.8580663 -0.316909,1.6861861 -0.921876,2.2949219 -0.604966,0.6087359 -1.430911,0.9465313 -2.289062,0.9355469 -0.850355,2.087e-4 -1.665097,-0.3413768 -2.259766,-0.9492188 -0.594669,-0.6078419 -0.919227,-1.431104 -0.90039,-2.28125 0.09472,-1.6897743 1.49312,-3.0117187 3.185547,-3.0117187 z m -0.22461,8.6113283 c -0.447496,0.007 -0.893409,0.03331 -1.339843,0.08008 -1.262327,0.0645 -2.498769,0.389034 -3.63086,0.951172 -1.7856488,0.77836 -2.909809,2.573245 -2.8300782,4.519531 l 0,7.419922 c 0.012322,1.023986 0.7079491,1.912853 1.6992188,2.169922 0.3700084,0.08664 0.7523354,0.113724 1.1308594,0.08008 0.29,0 0.359375,0.06961 0.359375,0.349609 l 0,4.361328 0,4.199219 c -0.03905,0.592245 0.171933,1.174544 0.580078,1.605469 0.408145,0.430925 0.976822,0.670921 1.570313,0.664062 l 5.300781,0 c 0.591521,0.0093 1.158661,-0.227528 1.568359,-0.654297 0.409698,-0.426768 0.625199,-1.005052 0.591797,-1.595703 l 0,-8.080078 c 0,-0.27 -0.08117,-0.609062 0.04883,-0.789062 0.13,-0.18 0.509532,-0.05055 0.769532,-0.06055 0.657225,0.02817 1.296465,-0.226546 1.751953,-0.701172 0.455488,-0.474626 0.684089,-1.123786 0.628906,-1.779297 l 0,-7.589844 c 0.0019,-0.833335 -0.246307,-1.648056 -0.710938,-2.339843 -0.836509,-1.186641 -2.083741,-2.020349 -3.5,-2.339844 -1.304613,-0.333768 -2.645791,-0.491627 -3.988281,-0.470703 z m 0.361328,1.560547 c 1.331722,0.0052 2.656357,0.23396 3.917969,0.679687 0.694445,0.249202 1.302132,0.694931 1.75,1.28125 0.3739,0.487439 0.574803,1.084908 0.570313,1.699219 -0.02,2.51 -0.0098,5.000234 -0.0098,7.490234 -0.0021,0.690595 -0.194514,0.890625 -0.890625,0.890625 -0.7,0 -0.689453,-0.0012 -0.689453,-0.701172 l 0,-5.539062 c 0,-0.6 -0.300547,-1 -0.810547,-1 -0.51,0 -0.810547,0.35 -0.810547,1 l 0,8.40039 0,8.31836 c 0,0.58 -0.12875,0.710937 -0.71875,0.710937 l -4.890625,0 c -0.65,0 -0.759765,-0.11 -0.759766,-0.75 l 0,-16.679687 c 0,-0.78 -0.620468,-1.199844 -1.230468,-0.839844 -0.280612,0.181796 -0.432838,0.508165 -0.390625,0.839844 l 0,5.830078 c 0,0.32 -0.05016,0.479922 -0.410157,0.419922 -0.136478,-0.01013 -0.271724,-0.01013 -0.408203,0 -0.5399998,0 -0.7714842,-0.229532 -0.7714842,-0.769531 l 0,-6.201172 0,-1.060547 c -0.097095,-1.3752 0.7141472,-2.651344 2.0000342,-3.148438 1.007318,-0.484097 2.10395,-0.757159 3.220703,-0.800781 0.4434,-0.04819 0.888124,-0.07203 1.332031,-0.07031 z M 9.4456936,29.712411 c -1.2716675,0.190298 -2.5301711,0.458235 -3.7695313,0.800781 -1.5148112,0.381929 -2.9504484,1.028694 -4.2402344,1.910156 -0.73630937,0.480047 -1.25316095,1.230838 -1.43945312,2.089844 -0.11673124,0.999439 0.33006352,1.982055 1.16015622,2.550781 1.2669301,1.024939 2.7512612,1.746035 4.3398438,2.109375 3.4640908,0.937239 7.0425432,1.388068 10.6308592,1.339844 2.216456,-0.02763 4.427509,-0.207119 6.619141,-0.539062 2.022994,-0.277107 4.00481,-0.801556 5.900391,-1.560547 0.925247,-0.357699 1.769231,-0.898344 2.480468,-1.589844 0.568326,-0.486365 0.894532,-1.197285 0.894532,-1.945313 0,-0.748027 -0.326206,-1.458947 -0.894532,-1.945312 -0.715517,-0.705481 -1.572134,-1.253216 -2.511718,-1.609375 -1.903058,-0.782169 -3.899285,-1.313376 -5.939453,-1.580078 -0.58,-0.08 -0.990313,0.16039 -1.070313,0.65039 -0.08,0.49 0.22125,0.849454 0.78125,0.939453 1.379417,0.20398 2.742859,0.505113 4.080078,0.900391 1.224389,0.307606 2.366995,0.87732 3.349609,1.669922 0.77,0.69 0.76,1.249453 0,1.939453 -0.610999,0.520516 -1.31304,0.923378 -2.070312,1.189453 -3.230024,1.166574 -6.636128,1.772988 -10.070312,1.791016 -2.974834,0.131817 -5.955849,-0.05647 -8.8906257,-0.560547 C 6.9667587,37.982335 5.1946028,37.457065 3.516006,36.702645 2.9308331,36.448067 2.4046682,36.077387 1.9671779,35.612801 1.7586637,35.423277 1.6390529,35.154343 1.6390529,34.872567 c 0,-0.281776 0.1196108,-0.55071 0.328125,-0.740234 0.2743521,-0.300875 0.5904516,-0.559787 0.9394531,-0.769532 1.0069273,-0.582461 2.0916247,-1.018926 3.2207032,-1.298828 1.1749697,-0.314312 2.3652631,-0.561614 3.5683594,-0.740234 0.220213,-0.02151 0.4216264,-0.135719 0.5546874,-0.3125 0.133061,-0.176781 0.186744,-0.39962 0.146485,-0.617188 -0.03165,-0.218185 -0.150803,-0.414645 -0.330079,-0.542968 C 9.887512,29.722759 9.6624312,29.672021 9.4456936,29.712411 Z" />
</svg>