<svg xmlns="http://www.w3.org/2000/svg" viewBox="0 0 22 21">
  <path d="m 2.5,9.5 c -1.0687366,0 -2,0.793585 -2,1.833984 l 0,7.332032 C 0.5,19.706415 1.4312634,20.5 2.5,20.5 l 3,0 A 0.50005,0.50005 0 0 0 5.8144531,20.380859 C 6.7267907,20.228806 7.5,19.589517 7.5,18.666016 L 7.5,10 A 0.50005,0.50005 0 0 0 7,9.5 l -4.5,0 z m 0,1 4,0 0,8.166016 C 6.5,19.098949 6.0887634,19.5 5.5,19.5 l -3,0 c -0.5887634,0 -1,-0.401051 -1,-0.833984 l 0,-7.332032 C 1.5,10.901051 1.9112366,10.5 2.5,10.5 Z m 9.552734,-10 c -0.902822,0 -1.751953,0.39453125 -1.751953,0.39453125 A 0.50005,0.50005 0 0 0 10,1.3515625 L 10,4.4199219 7.6582031,10.140625 7.1367188,10.40625 A 0.50052233,0.50052233 0 0 0 7.59375,11.296875 l 0.6855469,-0.351562 a 0.50005,0.50005 0 0 0 0.2324219,-0.25586 L 10.962891,4.7089844 A 0.50005,0.50005 0 0 0 11,4.5175781 L 11,1.7421875 C 11.227878,1.6588229 11.595201,1.5 12.052734,1.5 c 0.10606,0 0.529702,0.1896526 0.859375,0.609375 C 13.241783,2.5290974 13.5,3.1285537 13.5,3.8144531 c 0,1.4751201 -0.689453,4.8222656 -0.689453,4.8222657 a 0.50005,0.50005 0 0 0 0.490234,0.6035156 l 4.892578,0 0.0059,0 1.050781,0 c 0.695177,0 1.25,0.5566234 1.25,1.2597656 0,0.703142 -0.554823,1.259766 -1.25,1.259766 a 0.50005,0.50005 0 0 0 0,1 l 0.349609,0 c 0.502087,0 0.900391,0.397221 0.900391,0.90625 0,0.509028 -0.398304,0.908203 -0.900391,0.908203 l -0.349609,0 -0.349609,0 a 0.50005,0.50005 0 0 0 0,1 c 0.502086,0 0.90039,0.399174 0.90039,0.908203 0,0.509029 -0.398304,0.90625 -0.90039,0.90625 l -0.34961,0 a 0.50005,0.50005 0 0 0 0,1 c 0.307637,0 0.548828,0.243081 0.548828,0.55664 0,0.31356 -0.241191,0.554688 -0.548828,0.554688 l -0.34375,0 -0.0078,0 -0.699219,0 -7.6992188,0 C 9.6261003,19.5 9.055144,19.317454 8.546875,19.048828 8.0451055,18.783637 7.5588964,18.43626 7.3710938,18.25 A 0.50005,0.50005 0 0 0 7,18.091797 l 0,1 -0.3554688,-0.148438 c 0.3330741,0.337111 0.858991,0.685518 1.4355469,0.990235 C 8.6566341,20.23831 9.2299622,20.5 9.8007812,20.5 l 7.6933598,0 0.0059,0 0.699219,0 0.351562,0 c 0.851563,0 1.548828,-0.702913 1.548828,-1.554688 0,-0.349961 -0.175065,-0.640894 -0.373047,-0.902343 0.598583,-0.3227 1.074219,-0.836539 1.074219,-1.560547 0,-0.466892 -0.216555,-0.870012 -0.498047,-1.203125 C 20.966727,14.980486 21.5,14.438047 21.5,13.666016 21.5,13.018207 21.118888,12.532917 20.621094,12.1875 21.131327,11.772056 21.5,11.205644 21.5,10.5 21.5,9.3928314 20.645406,8.5700419 19.591797,8.3828125 A 0.50005,0.50005 0 0 0 19.25,8.2402344 l -1.050781,0 -4.324219,0 C 14.007128,7.6107862 14.5,5.3661482 14.5,3.8144531 14.5,2.8811304 14.157045,2.075067 13.699219,1.4921875 13.241392,0.90930802 12.692875,0.5 12.052734,0.5 Z" />
</svg>